<?xml version="1.0" encoding="UTF-8"?>
<svg width="18px" height="18px" viewBox="0 0 18 18" version="1.1" xmlns="http://www.w3.org/2000/svg" xmlns:xlink="http://www.w3.org/1999/xlink">
    <!-- Generator: sketchtool 63.1 (101010) - https://sketch.com -->
    <title>0A5FE54A-3DE7-4772-854E-A2A47FFA5691</title>
    <desc>Created with sketchtool.</desc>
    <g id="[UI]-PROVEEDOR-/-ASIGNACION-DE-PEDIDOS" stroke="none" stroke-width="1" fill="none" fill-rule="evenodd">
        <g id="04E_[ASIG.PEDIDOS]Numero-guia" transform="translate(-534.000000, -741.000000)">
            <g id="Ico/Informativo" transform="translate(533.000000, 740.000000)">
                <g id="ic_informativo" transform="translate(2.000000, 2.000000)">
                    <g id="Group-9" fill="#E7ECEF" stroke="#0D4D64">
                        <circle id="Oval" cx="8" cy="8" r="8"></circle>
                    </g>
                    <path d="M8.63378906,10.0205078 L8.79785156,3 L7.04785156,3 L7.20507812,10.0205078 L8.63378906,10.0205078 Z M7.94335938,13.0488281 C8.24414062,13.0488281 8.4765625,12.9645182 8.640625,12.7958984 C8.8046875,12.6272786 8.88671875,12.4176432 8.88671875,12.1669922 C8.88671875,11.9072266 8.80240885,11.6918945 8.63378906,11.5209961 C8.46516927,11.3500977 8.23502604,11.2646484 7.94335938,11.2646484 C7.65169271,11.2646484 7.42154948,11.3500977 7.25292969,11.5209961 C7.0843099,11.6918945 7,11.9072266 7,12.1669922 C7,12.4176432 7.08203125,12.6272786 7.24609375,12.7958984 C7.41015625,12.9645182 7.64257812,13.0488281 7.94335938,13.0488281 Z" id="!" fill="#0D4D64" fill-rule="nonzero" transform="translate(7.943359, 8.024414) rotate(-180.000000) translate(-7.943359, -8.024414) "></path>
                </g>
            </g>
        </g>
    </g>
</svg>