<?xml version="1.0" encoding="UTF-8"?>
<svg width="22px" height="24px" viewBox="0 0 22 24" version="1.1" xmlns="http://www.w3.org/2000/svg" xmlns:xlink="http://www.w3.org/1999/xlink">
    <!-- Generator: sketchtool 63.1 (101010) - https://sketch.com -->
    <title>0C675E35-F75B-4B78-8A85-5283048E81B2</title>
    <desc>Created with sketchtool.</desc>
    <g id="[UI]-PROVEEDOR-/-ASIGNACION-DE-PEDIDOS" stroke="none" stroke-width="1" fill="none" fill-rule="evenodd">
        <g id="06_[ASIG.PEDIDOS]Numero-guia" transform="translate(-272.000000, -1305.000000)" fill="#638A99">
            <g id="Group-15-Copy-3" transform="translate(271.000000, 1305.000000)">
                <g id="Group">
                    <path d="M21.64,0 C22.3027417,2.5532498e-15 22.84,0.5372583 22.84,1.2 C22.84,1.76152952 22.4543088,2.23297603 21.9333901,2.36387586 C21.9385819,2.39763834 21.9428471,2.43285063 21.9459163,2.46819065 L21.951823,2.60484721 L21.951823,21.3951528 C21.951823,22.7812272 20.8762592,23.9101016 19.5120198,23.9948877 L19.3469758,24 L12.04,22.8 L4.32484721,24 C2.9387728,24 1.80989843,22.9244362 1.72511235,21.5601968 L1.72,21.3951528 L1.72,2.60484721 C1.72,2.50422847 1.72566788,2.4049651 1.73670263,2.30735811 C1.30448088,2.12672888 1,1.6989221 1,1.2 C1,0.5372583 1.5372583,3.4378828e-16 2.2,0 L21.64,0 Z M11.32,18 L5.56,18 C5.16235498,18 4.84,18.322355 4.84,18.72 C4.84,19.0845079 5.11086773,19.3857513 5.46230026,19.4334272 L5.56,19.44 L11.32,19.44 C11.717645,19.44 12.04,19.117645 12.04,18.72 C12.04,18.322355 11.717645,18 11.32,18 Z M17.2788644,9.36 L16.4712934,9.36 L16.4712934,10.4401262 L16.2510252,10.4699369 C15.7501314,10.5560568 15.340694,10.7581073 15.0227129,11.0760883 C14.659306,11.4394953 14.4776025,11.905531 14.4776025,12.4741956 C14.4776025,12.8039537 14.5305994,13.088286 14.6365931,13.3271924 C14.7425868,13.5660988 14.8906414,13.7738801 15.0807571,13.9505363 C15.2708728,14.1271924 15.4988433,14.2836593 15.7646688,14.4199369 C16.0304942,14.5562145 16.3467928,14.6933333 16.7135647,14.8312934 C17.0803365,14.9692534 17.3402734,15.1198318 17.4933754,15.2830284 C17.6464774,15.446225 17.7230284,15.6657834 17.7230284,15.9417035 C17.7230284,16.2075289 17.637224,16.4186751 17.4656151,16.575142 C17.2940063,16.7316088 17.0601472,16.8098423 16.7640379,16.8098423 C16.4073607,16.8098423 16.1339642,16.7030074 15.9438486,16.4893375 C15.8080517,16.3367162 15.7207537,16.1364544 15.6819545,15.8885521 L15.6644949,15.7340939 L15.6586751,15.5682019 L14.2,15.5682019 L14.2070102,15.7930568 C14.2443977,16.3791274 14.4313354,16.8568571 14.7678233,17.2262461 C15.0622503,17.5494614 15.4508211,17.7693728 15.9335358,17.8859804 L16.1461775,17.9296304 L16.370347,17.9606309 L16.370347,18.96 L17.1728707,18.96 L17.1728707,17.9555836 L17.3765082,17.9288515 C17.9062481,17.8431094 18.3296413,17.6417152 18.6466877,17.3246688 C19.0033649,16.9679916 19.1817035,16.5036383 19.1817035,15.9316088 C19.1817035,15.6254048 19.1345952,15.3570557 19.0403785,15.1265615 C18.9461619,14.8960673 18.8098843,14.6908097 18.6315457,14.5107886 C18.4532072,14.3307676 18.23449,14.1692534 17.9753943,14.0262461 C17.7162986,13.8832387 17.3856993,13.7309779 16.9835962,13.5694637 C16.5814932,13.4079495 16.3064143,13.2498002 16.1583596,13.0950158 C16.0103049,12.9402313 15.9362776,12.7349737 15.9362776,12.4792429 C15.9362776,12.2033228 16.0119874,11.9871293 16.1634069,11.8306625 C16.3148265,11.6741956 16.5284963,11.5959621 16.8044164,11.5959621 C17.0837014,11.5959621 17.3066246,11.6960673 17.4731861,11.8962776 C17.5921586,12.039285 17.668641,12.2342248 17.7026331,12.481097 L17.7179296,12.6354523 L17.7230284,12.8022713 L19.1817035,12.8022713 L19.1754722,12.5880718 C19.1422388,12.0289203 18.976072,11.5661456 18.6769716,11.1997476 C18.4152588,10.8791494 18.0751775,10.657784 17.6567278,10.5356514 L17.4725942,10.4893843 L17.2788644,10.4552681 L17.2788644,9.36 Z M11.32,13.44 L5.56,13.44 C5.16235498,13.44 4.84,13.762355 4.84,14.16 C4.84,14.5245079 5.11086773,14.8257513 5.46230026,14.8734272 L5.56,14.88 L11.32,14.88 C11.717645,14.88 12.04,14.557645 12.04,14.16 C12.04,13.762355 11.717645,13.44 11.32,13.44 Z M11.32,9.12 L5.56,9.12 C5.16235498,9.12 4.84,9.44235498 4.84,9.84 C4.84,10.2045079 5.11086773,10.5057513 5.46230026,10.5534272 L5.56,10.56 L11.32,10.56 C11.717645,10.56 12.04,10.237645 12.04,9.84 C12.04,9.44235498 11.717645,9.12 11.32,9.12 Z M18.52,4.8 L5.56,4.8 C5.16235498,4.8 4.84,5.12235498 4.84,5.52 C4.84,5.88450793 5.11086773,6.18575132 5.46230026,6.23342725 L5.56,6.24 L18.52,6.24 C18.917645,6.24 19.24,5.91764502 19.24,5.52 C19.24,5.12235498 18.917645,4.8 18.52,4.8 Z" id="Combined-Shape" fill-rule="nonzero"></path>
                    <rect id="Rectangle" opacity="0" x="0" y="0" width="24" height="24"></rect>
                </g>
            </g>
        </g>
    </g>
</svg>